<mxfile host="app.diagrams.net" modified="2023-12-17T05:59:11.923Z" agent="Mozilla/5.0 (Windows NT 10.0; Win64; x64; rv:120.0) Gecko/20100101 Firefox/120.0" version="22.1.11" etag="U6gLuA_7Fbza_9pGaqMB" type="github">
  <diagram name="Page-1" id="3Qxi_92tVsTOxFbvDciQ">
    <mxGraphModel>
      <root>
        <mxCell id="0" />
        <mxCell id="1" parent="0" />
      </root>
    </mxGraphModel>
  </diagram>
</mxfile>
